solid CATIA STL
  facet normal  0.000000e+000  1.000000e+000  0.000000e+000
    outer loop
      vertex -2.000000e+001  6.000000e+000  0.000000e+000
      vertex -2.100000e+001  6.000000e+000  0.000000e+000
      vertex -2.000000e+001  6.000000e+000  3.000000e+000
    endloop
  endfacet
  facet normal  0.000000e+000  1.000000e+000  0.000000e+000
    outer loop
      vertex -2.000000e+001  6.000000e+000  3.000000e+000
      vertex -2.100000e+001  6.000000e+000  0.000000e+000
      vertex -2.100000e+001  6.000000e+000  4.000000e+000
    endloop
  endfacet
  facet normal  0.000000e+000  1.000000e+000  0.000000e+000
    outer loop
      vertex -2.000000e+001  6.000000e+000  3.000000e+000
      vertex -2.100000e+001  6.000000e+000  4.000000e+000
      vertex  2.000000e+001  6.000000e+000  3.000000e+000
    endloop
  endfacet
  facet normal  0.000000e+000  1.000000e+000  -0.000000e+000
    outer loop
      vertex  2.000000e+001  6.000000e+000  3.000000e+000
      vertex -2.100000e+001  6.000000e+000  4.000000e+000
      vertex  2.100000e+001  6.000000e+000  4.000000e+000
    endloop
  endfacet
  facet normal  0.000000e+000  1.000000e+000  0.000000e+000
    outer loop
      vertex  2.000000e+001  6.000000e+000  3.000000e+000
      vertex  2.100000e+001  6.000000e+000  4.000000e+000
      vertex  2.000000e+001  6.000000e+000  0.000000e+000
    endloop
  endfacet
  facet normal  0.000000e+000  1.000000e+000  0.000000e+000
    outer loop
      vertex  2.000000e+001  6.000000e+000  0.000000e+000
      vertex  2.100000e+001  6.000000e+000  4.000000e+000
      vertex  2.100000e+001  6.000000e+000  0.000000e+000
    endloop
  endfacet
  facet normal  -0.000000e+000  0.000000e+000 -1.000000e+000
    outer loop
      vertex  2.000000e+001  6.000000e+000  0.000000e+000
      vertex  2.100000e+001  6.000000e+000  0.000000e+000
      vertex  2.000000e+001 -4.500000e+000  0.000000e+000
    endloop
  endfacet
  facet normal  0.000000e+000  0.000000e+000 -1.000000e+000
    outer loop
      vertex  2.000000e+001 -4.500000e+000  0.000000e+000
      vertex  2.100000e+001  6.000000e+000  0.000000e+000
      vertex  2.100000e+001 -6.000000e+000  0.000000e+000
    endloop
  endfacet
  facet normal  0.000000e+000  0.000000e+000 -1.000000e+000
    outer loop
      vertex  2.000000e+001 -4.500000e+000  0.000000e+000
      vertex  2.100000e+001 -6.000000e+000  0.000000e+000
      vertex -2.000000e+001 -4.500000e+000  0.000000e+000
    endloop
  endfacet
  facet normal  0.000000e+000  -0.000000e+000 -1.000000e+000
    outer loop
      vertex -2.000000e+001 -4.500000e+000  0.000000e+000
      vertex  2.100000e+001 -6.000000e+000  0.000000e+000
      vertex -2.100000e+001 -6.000000e+000  0.000000e+000
    endloop
  endfacet
  facet normal  0.000000e+000  0.000000e+000 -1.000000e+000
    outer loop
      vertex -2.000000e+001 -4.500000e+000  0.000000e+000
      vertex -2.100000e+001 -6.000000e+000  0.000000e+000
      vertex -2.000000e+001  6.000000e+000  0.000000e+000
    endloop
  endfacet
  facet normal  -0.000000e+000  0.000000e+000 -1.000000e+000
    outer loop
      vertex -2.000000e+001  6.000000e+000  0.000000e+000
      vertex -2.100000e+001 -6.000000e+000  0.000000e+000
      vertex -2.100000e+001  6.000000e+000  0.000000e+000
    endloop
  endfacet
  facet normal  1.000000e+000  0.000000e+000  0.000000e+000
    outer loop
      vertex -2.000000e+001  6.000000e+000  0.000000e+000
      vertex -2.000000e+001  6.000000e+000  3.000000e+000
      vertex -2.000000e+001 -4.500000e+000  0.000000e+000
    endloop
  endfacet
  facet normal  1.000000e+000  0.000000e+000  0.000000e+000
    outer loop
      vertex -2.000000e+001 -4.500000e+000  0.000000e+000
      vertex -2.000000e+001  6.000000e+000  3.000000e+000
      vertex -2.000000e+001 -4.500000e+000  3.000000e+000
    endloop
  endfacet
  facet normal -1.000000e+000  0.000000e+000  0.000000e+000
    outer loop
      vertex  2.000000e+001 -4.500000e+000  0.000000e+000
      vertex  2.000000e+001 -4.500000e+000  3.000000e+000
      vertex  2.000000e+001  6.000000e+000  0.000000e+000
    endloop
  endfacet
  facet normal -1.000000e+000  0.000000e+000  0.000000e+000
    outer loop
      vertex  2.000000e+001  6.000000e+000  0.000000e+000
      vertex  2.000000e+001 -4.500000e+000  3.000000e+000
      vertex  2.000000e+001  6.000000e+000  3.000000e+000
    endloop
  endfacet
  facet normal  -0.000000e+000  0.000000e+000 -1.000000e+000
    outer loop
      vertex -2.000000e+001  6.000000e+000  3.000000e+000
      vertex  2.000000e+001  6.000000e+000  3.000000e+000
      vertex -2.000000e+001 -4.500000e+000  3.000000e+000
    endloop
  endfacet
  facet normal  0.000000e+000  0.000000e+000 -1.000000e+000
    outer loop
      vertex -2.000000e+001 -4.500000e+000  3.000000e+000
      vertex  2.000000e+001  6.000000e+000  3.000000e+000
      vertex  2.000000e+001 -4.500000e+000  3.000000e+000
    endloop
  endfacet
  facet normal  0.000000e+000  1.000000e+000  0.000000e+000
    outer loop
      vertex -2.000000e+001 -4.500000e+000  0.000000e+000
      vertex -2.000000e+001 -4.500000e+000  3.000000e+000
      vertex  2.000000e+001 -4.500000e+000  0.000000e+000
    endloop
  endfacet
  facet normal  0.000000e+000  1.000000e+000  -0.000000e+000
    outer loop
      vertex  2.000000e+001 -4.500000e+000  0.000000e+000
      vertex -2.000000e+001 -4.500000e+000  3.000000e+000
      vertex  2.000000e+001 -4.500000e+000  3.000000e+000
    endloop
  endfacet
  facet normal  0.000000e+000  0.000000e+000  1.000000e+000
    outer loop
      vertex -2.100000e+001 -6.000000e+000  4.000000e+000
      vertex  2.100000e+001 -6.000000e+000  4.000000e+000
      vertex -2.100000e+001  6.000000e+000  4.000000e+000
    endloop
  endfacet
  facet normal  -0.000000e+000  0.000000e+000  1.000000e+000
    outer loop
      vertex -2.100000e+001  6.000000e+000  4.000000e+000
      vertex  2.100000e+001 -6.000000e+000  4.000000e+000
      vertex  2.100000e+001  6.000000e+000  4.000000e+000
    endloop
  endfacet
  facet normal  1.000000e+000  0.000000e+000  0.000000e+000
    outer loop
      vertex  2.100000e+001  6.000000e+000  0.000000e+000
      vertex  2.100000e+001  6.000000e+000  4.000000e+000
      vertex  2.100000e+001 -6.000000e+000  0.000000e+000
    endloop
  endfacet
  facet normal  1.000000e+000  0.000000e+000  0.000000e+000
    outer loop
      vertex  2.100000e+001 -6.000000e+000  0.000000e+000
      vertex  2.100000e+001  6.000000e+000  4.000000e+000
      vertex  2.100000e+001 -6.000000e+000  4.000000e+000
    endloop
  endfacet
  facet normal  0.000000e+000 -1.000000e+000  -0.000000e+000
    outer loop
      vertex  2.100000e+001 -6.000000e+000  0.000000e+000
      vertex  2.100000e+001 -6.000000e+000  4.000000e+000
      vertex -2.100000e+001 -6.000000e+000  0.000000e+000
    endloop
  endfacet
  facet normal  0.000000e+000 -1.000000e+000  0.000000e+000
    outer loop
      vertex -2.100000e+001 -6.000000e+000  0.000000e+000
      vertex  2.100000e+001 -6.000000e+000  4.000000e+000
      vertex -2.100000e+001 -6.000000e+000  4.000000e+000
    endloop
  endfacet
  facet normal -1.000000e+000  0.000000e+000  0.000000e+000
    outer loop
      vertex -2.100000e+001 -6.000000e+000  0.000000e+000
      vertex -2.100000e+001 -6.000000e+000  4.000000e+000
      vertex -2.100000e+001  6.000000e+000  0.000000e+000
    endloop
  endfacet
  facet normal -1.000000e+000  0.000000e+000  0.000000e+000
    outer loop
      vertex -2.100000e+001  6.000000e+000  0.000000e+000
      vertex -2.100000e+001 -6.000000e+000  4.000000e+000
      vertex -2.100000e+001  6.000000e+000  4.000000e+000
    endloop
  endfacet
endsolid CATIA STL
